# xmcd
#
# Track frame offsets: 
#        182
#        21092
#        36975
#        60360
#        86395
#        114385
#        138337
#        174257
#        195937
#        213917
#        240512
#        262392
#
# Disc length: 3847 seconds
#
# Revision: 2
# Processed by: cddbd v1.5.2PL0 Copyright (c) Steve Scherf et al.
# Submitted via: ExactAudioCopy v0.99pb3
#
DISCID=980f050c
DTITLE=Big Jack Johnson - Daddy, When Is Mama Coming Home?
DYEAR=1989
DGENRE=Blues
TTITLE0=Thirteen Chillun
TTITLE1=I'm A Big Boy Now
TTITLE2=Oh Darling
TTITLE3=Doodley Squat
TTITLE4=Crawdad Hole
TTITLE5=Chinese Blues
TTITLE6=Daddy, When Is Mama Coming Home?
TTITLE7=I Slapped My Wife In The Face
TTITLE8=Northwest Airlines Blues
TTITLE9=Goin' Back To Mississippi
TTITLE10=Mr. U.S. A.I.D.S.
TTITLE11=United States Got Us In A Bad Shape
EXTD=
EXTT0=
EXTT1=
EXTT2=
EXTT3=
EXTT4=
EXTT5=
EXTT6=
EXTT7=
EXTT8=
EXTT9=
EXTT10=
EXTT11=
PLAYORDER=
